<svg width="225" height="259" viewBox="0 0 225 259" fill="none" xmlns="http://www.w3.org/2000/svg">
<path id="Vector 15" d="M59.058 134.635C59.058 134.635 47.5791 134.845 40.7351 132.613C27.2099 128.201 18.7896 123.241 12.0841 110.694C6.85681 100.913 2.13907 77.6926 2.13907 77.6926C2.13907 77.6926 22.9139 79.4714 31.325 80.3453C48.4894 82.1286 56.0694 77.8156 72.8033 82.0315C90.3542 86.4533 97.4891 101.924 110.847 114.137C125.126 127.193 127.494 133.302 141.624 146.52C167.072 170.326 222.719 183.751 222.719 183.751C222.719 183.751 209.519 151.555 200.015 131.398C190.073 110.312 191.774 91.8103 172.797 78.269C172.797 78.269 154.653 61.6689 143.407 66.7272C134.75 70.6213 126.335 78.6746 130.391 87.2572C134.11 95.124 143.891 95.7377 152.016 92.6246C160.496 89.376 164.466 72.9872 164.466 72.9872C164.466 72.9872 171.878 53.1734 170.653 40.2017C169.101 23.7807 152.188 2.21596 152.188 2.21596C152.188 2.21596 127.316 24.6215 117.158 42.994C109.951 56.0285 105.755 63.93 103.708 78.6829C100.163 104.233 116.663 117.077 120.325 142.611C123.652 165.806 127.152 179.543 122.777 202.564C118.339 225.922 97.959 258.158 97.959 258.158C97.959 258.158 99.9886 241.567 97.3465 231.491C93.7077 217.613 84.7272 212.985 77.1919 200.776C67.2028 184.592 53.2553 177.441 53.1538 158.423C53.1027 148.851 59.058 134.635 59.058 134.635ZM59.058 134.635C59.058 134.635 70.9172 139.828 77.3808 136.658C83.6807 133.569 87.7035 128.465 87.0013 121.484C86.1063 112.586 76.349 107.101 67.6614 109.222C57.4825 111.707 59.058 134.635 59.058 134.635Z" stroke="#FFD2CE" stroke-opacity="0.55" stroke-width="2"/>
</svg>
